<mxfile host="app.diagrams.net" modified="2022-12-16T23:23:09.607Z" agent="5.0 (Windows NT 10.0; Win64; x64) AppleWebKit/537.36 (KHTML, like Gecko) Chrome/108.0.0.0 Safari/537.36" etag="vHiE0QlQFfbpG1cI04Ob" version="20.7.3" type="github">
  <diagram id="1zsrYsu_AoUvq1Fhgnbw" name="Page-1">
    <mxGraphModel dx="1834" dy="1156" grid="0" gridSize="10" guides="1" tooltips="1" connect="1" arrows="1" fold="1" page="0" pageScale="1" pageWidth="827" pageHeight="1169" math="0" shadow="0">
      <root>
        <mxCell id="0" />
        <mxCell id="1" parent="0" />
        <mxCell id="FTgBYZZlQ3uHb3LYkkLP-57" style="edgeStyle=orthogonalEdgeStyle;rounded=0;orthogonalLoop=1;jettySize=auto;html=1;exitX=0.5;exitY=0;exitDx=0;exitDy=0;entryX=0.5;entryY=1;entryDx=0;entryDy=0;endArrow=none;endFill=0;startArrow=diamondThin;startFill=1;startSize=11;" parent="1" source="FTgBYZZlQ3uHb3LYkkLP-59" target="FTgBYZZlQ3uHb3LYkkLP-95" edge="1">
          <mxGeometry relative="1" as="geometry" />
        </mxCell>
        <mxCell id="FTgBYZZlQ3uHb3LYkkLP-58" style="edgeStyle=orthogonalEdgeStyle;rounded=0;jumpSize=6;orthogonalLoop=1;jettySize=auto;html=1;exitX=1;exitY=0.5;exitDx=0;exitDy=0;entryX=0.5;entryY=1;entryDx=0;entryDy=0;strokeWidth=1;fontSize=12;startArrow=none;startFill=0;endArrow=none;endFill=0;startSize=6;endSize=11;" parent="1" source="FTgBYZZlQ3uHb3LYkkLP-59" target="FTgBYZZlQ3uHb3LYkkLP-93" edge="1">
          <mxGeometry relative="1" as="geometry" />
        </mxCell>
        <mxCell id="FTgBYZZlQ3uHb3LYkkLP-60" style="edgeStyle=orthogonalEdgeStyle;rounded=0;orthogonalLoop=1;jettySize=auto;html=1;endArrow=diamondThin;endFill=0;endSize=11;exitX=0.75;exitY=0;exitDx=0;exitDy=0;" parent="1" target="FTgBYZZlQ3uHb3LYkkLP-91" edge="1">
          <mxGeometry relative="1" as="geometry">
            <Array as="points">
              <mxPoint x="160" y="889" />
              <mxPoint x="160" y="851" />
              <mxPoint x="221" y="851" />
            </Array>
            <mxPoint x="162.49999999999977" y="889.0000000000002" as="sourcePoint" />
            <mxPoint x="221" y="756" as="targetPoint" />
          </mxGeometry>
        </mxCell>
        <mxCell id="FTgBYZZlQ3uHb3LYkkLP-62" style="edgeStyle=orthogonalEdgeStyle;rounded=0;orthogonalLoop=1;jettySize=auto;html=1;endArrow=diamondThin;endFill=0;startSize=6;endSize=11;exitX=0.25;exitY=0;exitDx=0;exitDy=0;" parent="1" source="FTgBYZZlQ3uHb3LYkkLP-63" target="FTgBYZZlQ3uHb3LYkkLP-91" edge="1">
          <mxGeometry relative="1" as="geometry">
            <Array as="points">
              <mxPoint x="280" y="889" />
              <mxPoint x="280" y="851" />
              <mxPoint x="221" y="851" />
            </Array>
            <mxPoint x="221" y="756" as="targetPoint" />
          </mxGeometry>
        </mxCell>
        <mxCell id="FTgBYZZlQ3uHb3LYkkLP-64" style="edgeStyle=orthogonalEdgeStyle;rounded=0;orthogonalLoop=1;jettySize=auto;html=1;entryX=1;entryY=0.5;entryDx=0;entryDy=0;endArrow=none;endFill=0;startArrow=diamondThin;startFill=1;startSize=11;" parent="1" source="FTgBYZZlQ3uHb3LYkkLP-66" target="FTgBYZZlQ3uHb3LYkkLP-56" edge="1">
          <mxGeometry relative="1" as="geometry" />
        </mxCell>
        <mxCell id="FTgBYZZlQ3uHb3LYkkLP-65" style="edgeStyle=orthogonalEdgeStyle;rounded=0;orthogonalLoop=1;jettySize=auto;html=1;entryX=1;entryY=1;entryDx=0;entryDy=0;endArrow=none;endFill=0;" parent="1" source="FTgBYZZlQ3uHb3LYkkLP-66" target="FTgBYZZlQ3uHb3LYkkLP-102" edge="1">
          <mxGeometry relative="1" as="geometry">
            <Array as="points">
              <mxPoint x="535" y="-25" />
            </Array>
          </mxGeometry>
        </mxCell>
        <mxCell id="FTgBYZZlQ3uHb3LYkkLP-67" style="edgeStyle=orthogonalEdgeStyle;rounded=0;orthogonalLoop=1;jettySize=auto;html=1;entryX=0.5;entryY=0;entryDx=0;entryDy=0;endArrow=none;endFill=0;startArrow=diamondThin;startFill=1;endSize=6;jumpSize=6;fontSize=12;strokeWidth=1;startSize=11;exitX=0.5;exitY=1;exitDx=0;exitDy=0;" parent="1" source="FTgBYZZlQ3uHb3LYkkLP-104" target="FTgBYZZlQ3uHb3LYkkLP-56" edge="1">
          <mxGeometry relative="1" as="geometry" />
        </mxCell>
        <mxCell id="FTgBYZZlQ3uHb3LYkkLP-69" style="edgeStyle=orthogonalEdgeStyle;rounded=0;orthogonalLoop=1;jettySize=auto;html=1;entryX=0;entryY=0.5;entryDx=0;entryDy=0;endArrow=none;endFill=0;startArrow=diamondThin;startFill=1;startSize=11;" parent="1" source="FTgBYZZlQ3uHb3LYkkLP-70" target="FTgBYZZlQ3uHb3LYkkLP-56" edge="1">
          <mxGeometry relative="1" as="geometry" />
        </mxCell>
        <mxCell id="FTgBYZZlQ3uHb3LYkkLP-71" value="0..1" style="text;html=1;align=center;verticalAlign=middle;resizable=0;points=[];autosize=1;strokeColor=none;fillColor=none;" parent="1" vertex="1">
          <mxGeometry x="218" y="468" width="40" height="30" as="geometry" />
        </mxCell>
        <mxCell id="FTgBYZZlQ3uHb3LYkkLP-72" value="0..1" style="text;html=1;align=center;verticalAlign=middle;resizable=0;points=[];autosize=1;strokeColor=none;fillColor=none;" parent="1" vertex="1">
          <mxGeometry x="353" y="140" width="40" height="30" as="geometry" />
        </mxCell>
        <mxCell id="FTgBYZZlQ3uHb3LYkkLP-73" value="0..1" style="text;html=1;align=center;verticalAlign=middle;resizable=0;points=[];autosize=1;strokeColor=none;fillColor=none;" parent="1" vertex="1">
          <mxGeometry x="218" y="122" width="40" height="30" as="geometry" />
        </mxCell>
        <mxCell id="FTgBYZZlQ3uHb3LYkkLP-74" value="0..1" style="text;html=1;align=center;verticalAlign=middle;resizable=0;points=[];autosize=1;strokeColor=none;fillColor=none;" parent="1" vertex="1">
          <mxGeometry x="57.5" y="140" width="40" height="30" as="geometry" />
        </mxCell>
        <mxCell id="FTgBYZZlQ3uHb3LYkkLP-75" value="0..*" style="text;html=1;align=center;verticalAlign=middle;resizable=0;points=[];autosize=1;strokeColor=none;fillColor=none;" parent="1" vertex="1">
          <mxGeometry x="97.5" y="864" width="40" height="30" as="geometry" />
        </mxCell>
        <mxCell id="FTgBYZZlQ3uHb3LYkkLP-76" value="0..*" style="text;html=1;align=center;verticalAlign=middle;resizable=0;points=[];autosize=1;strokeColor=none;fillColor=none;" parent="1" vertex="1">
          <mxGeometry x="288.5" y="864" width="40" height="30" as="geometry" />
        </mxCell>
        <mxCell id="FTgBYZZlQ3uHb3LYkkLP-77" value="" style="triangle;whiteSpace=wrap;html=1;fontSize=12;fillColor=#000000;rotation=-90;" parent="1" vertex="1">
          <mxGeometry x="196" y="794" width="10" height="20" as="geometry" />
        </mxCell>
        <mxCell id="FTgBYZZlQ3uHb3LYkkLP-78" value="" style="triangle;whiteSpace=wrap;html=1;fontSize=12;fillColor=#000000;rotation=90;" parent="1" vertex="1">
          <mxGeometry x="236" y="794" width="10" height="20" as="geometry" />
        </mxCell>
        <mxCell id="FTgBYZZlQ3uHb3LYkkLP-79" value="Add item" style="text;html=1;strokeColor=none;fillColor=none;align=center;verticalAlign=middle;whiteSpace=wrap;rounded=0;fontSize=12;rotation=-90;" parent="1" vertex="1">
          <mxGeometry x="141" y="794" width="60" height="30" as="geometry" />
        </mxCell>
        <mxCell id="FTgBYZZlQ3uHb3LYkkLP-80" value="Update&amp;nbsp; or delete item" style="text;html=1;strokeColor=none;fillColor=none;align=center;verticalAlign=middle;whiteSpace=wrap;rounded=0;fontSize=12;rotation=90;" parent="1" vertex="1">
          <mxGeometry x="241" y="789" width="65" height="30" as="geometry" />
        </mxCell>
        <mxCell id="FTgBYZZlQ3uHb3LYkkLP-81" value="" style="triangle;whiteSpace=wrap;html=1;fontSize=12;fillColor=#000000;" parent="1" vertex="1">
          <mxGeometry x="457.5" y="520" width="10" height="20" as="geometry" />
        </mxCell>
        <mxCell id="FTgBYZZlQ3uHb3LYkkLP-82" value="" style="triangle;whiteSpace=wrap;html=1;fontSize=12;fillColor=#000000;" parent="1" vertex="1">
          <mxGeometry x="416.5" y="-50" width="10" height="20" as="geometry" />
        </mxCell>
        <mxCell id="FTgBYZZlQ3uHb3LYkkLP-83" value="&lt;span style=&quot;background-color: rgb(248, 249, 250);&quot;&gt;Provides progress of current goals&lt;/span&gt;" style="text;html=1;strokeColor=none;fillColor=none;align=center;verticalAlign=middle;whiteSpace=wrap;rounded=0;fontSize=12;" parent="1" vertex="1">
          <mxGeometry x="370" y="-86" width="101.5" height="30" as="geometry" />
        </mxCell>
        <mxCell id="FTgBYZZlQ3uHb3LYkkLP-84" value="&lt;span style=&quot;background-color: rgb(248, 249, 250);&quot;&gt;Provide exercise types / food names&lt;/span&gt;" style="text;html=1;strokeColor=none;fillColor=none;align=center;verticalAlign=middle;whiteSpace=wrap;rounded=0;fontSize=12;" parent="1" vertex="1">
          <mxGeometry x="406" y="488" width="113" height="30" as="geometry" />
        </mxCell>
        <mxCell id="FTgBYZZlQ3uHb3LYkkLP-90" style="edgeStyle=orthogonalEdgeStyle;rounded=0;orthogonalLoop=1;jettySize=auto;html=1;entryX=0;entryY=0.75;entryDx=0;entryDy=0;startArrow=none;startFill=0;endArrow=none;endFill=0;" parent="1" source="FTgBYZZlQ3uHb3LYkkLP-91" target="FTgBYZZlQ3uHb3LYkkLP-106" edge="1">
          <mxGeometry relative="1" as="geometry">
            <Array as="points">
              <mxPoint x="-174" y="693" />
              <mxPoint x="-174" y="-18" />
              <mxPoint x="-157" y="-18" />
            </Array>
          </mxGeometry>
        </mxCell>
        <mxCell id="FTgBYZZlQ3uHb3LYkkLP-103" style="edgeStyle=orthogonalEdgeStyle;rounded=0;orthogonalLoop=1;jettySize=auto;html=1;entryX=1.001;entryY=0.65;entryDx=0;entryDy=0;entryPerimeter=0;startArrow=diamondThin;startFill=0;endArrow=none;endFill=0;startSize=11;" parent="1" target="FTgBYZZlQ3uHb3LYkkLP-106" edge="1">
          <mxGeometry relative="1" as="geometry">
            <mxPoint x="148" y="-30" as="sourcePoint" />
            <mxPoint x="-8.5" y="-26.67999999999995" as="targetPoint" />
            <Array as="points" />
          </mxGeometry>
        </mxCell>
        <mxCell id="FTgBYZZlQ3uHb3LYkkLP-108" value="0..*" style="text;html=1;align=center;verticalAlign=middle;resizable=0;points=[];autosize=1;strokeColor=none;fillColor=none;" parent="1" vertex="1">
          <mxGeometry x="-31" y="-53" width="40" height="30" as="geometry" />
        </mxCell>
        <mxCell id="FTgBYZZlQ3uHb3LYkkLP-109" value="" style="triangle;whiteSpace=wrap;html=1;fontSize=12;fillColor=#000000;rotation=-180;" parent="1" vertex="1">
          <mxGeometry x="-35" y="660" width="10" height="20" as="geometry" />
        </mxCell>
        <mxCell id="FTgBYZZlQ3uHb3LYkkLP-110" value="&lt;span style=&quot;background-color: rgb(248, 249, 250);&quot;&gt;Provide exercise/food types&lt;/span&gt;" style="text;html=1;strokeColor=none;fillColor=none;align=center;verticalAlign=middle;whiteSpace=wrap;rounded=0;fontSize=12;" parent="1" vertex="1">
          <mxGeometry x="-84" y="627" width="108" height="30" as="geometry" />
        </mxCell>
        <mxCell id="FTgBYZZlQ3uHb3LYkkLP-111" value="" style="group" parent="1" vertex="1" connectable="0">
          <mxGeometry x="-151" y="151" width="158" height="146" as="geometry" />
        </mxCell>
        <mxCell id="FTgBYZZlQ3uHb3LYkkLP-70" value="Quizzes" style="rounded=0;whiteSpace=wrap;html=1;" parent="FTgBYZZlQ3uHb3LYkkLP-111" vertex="1">
          <mxGeometry width="158.00000000000003" height="30" as="geometry" />
        </mxCell>
        <mxCell id="FTgBYZZlQ3uHb3LYkkLP-100" value="dayQuiz&lt;br&gt;dayMonth&lt;br&gt;previousQuizzes" style="rounded=0;whiteSpace=wrap;html=1;align=left;spacingLeft=2;" parent="FTgBYZZlQ3uHb3LYkkLP-111" vertex="1">
          <mxGeometry y="30" width="158.00000000000003" height="58" as="geometry" />
        </mxCell>
        <mxCell id="FTgBYZZlQ3uHb3LYkkLP-101" value="markQuiz(id, answers)&lt;br&gt;generateDayQuiz(id)&lt;br&gt;generateMonthQuiz(id)" style="rounded=0;whiteSpace=wrap;html=1;align=left;spacingLeft=2;" parent="FTgBYZZlQ3uHb3LYkkLP-111" vertex="1">
          <mxGeometry y="88" width="158.00000000000003" height="58" as="geometry" />
        </mxCell>
        <mxCell id="FTgBYZZlQ3uHb3LYkkLP-112" value="" style="group" parent="1" vertex="1" connectable="0">
          <mxGeometry x="-157" y="-86" width="130.5" height="103" as="geometry" />
        </mxCell>
        <mxCell id="FTgBYZZlQ3uHb3LYkkLP-105" value="Goal" style="rounded=0;whiteSpace=wrap;html=1;" parent="FTgBYZZlQ3uHb3LYkkLP-112" vertex="1">
          <mxGeometry y="-6" width="130.5" height="30" as="geometry" />
        </mxCell>
        <mxCell id="FTgBYZZlQ3uHb3LYkkLP-106" value="description&lt;br&gt;progress&lt;br&gt;badgeIconUrl" style="rounded=0;whiteSpace=wrap;html=1;align=left;spacingLeft=2;" parent="FTgBYZZlQ3uHb3LYkkLP-112" vertex="1">
          <mxGeometry y="24" width="130.5" height="49" as="geometry" />
        </mxCell>
        <mxCell id="FTgBYZZlQ3uHb3LYkkLP-107" value="updateProgress(value)" style="rounded=0;whiteSpace=wrap;html=1;align=left;spacingLeft=2;" parent="FTgBYZZlQ3uHb3LYkkLP-112" vertex="1">
          <mxGeometry y="73" width="130.5" height="30" as="geometry" />
        </mxCell>
        <mxCell id="FTgBYZZlQ3uHb3LYkkLP-113" value="" style="group" parent="1" vertex="1" connectable="0">
          <mxGeometry x="148.75" y="-126.75" width="150.5" height="171.5" as="geometry" />
        </mxCell>
        <mxCell id="FTgBYZZlQ3uHb3LYkkLP-68" value="Goals" style="rounded=0;whiteSpace=wrap;html=1;" parent="FTgBYZZlQ3uHb3LYkkLP-113" vertex="1">
          <mxGeometry width="150.5" height="30" as="geometry" />
        </mxCell>
        <mxCell id="FTgBYZZlQ3uHb3LYkkLP-102" value="activeWeekGoals&lt;br&gt;activeMonthGoals&lt;br&gt;inactiveGoals&lt;br&gt;completedGoals" style="rounded=0;whiteSpace=wrap;html=1;align=left;spacingLeft=2;" parent="FTgBYZZlQ3uHb3LYkkLP-113" vertex="1">
          <mxGeometry y="30" width="150.5" height="71.5" as="geometry" />
        </mxCell>
        <mxCell id="FTgBYZZlQ3uHb3LYkkLP-104" value="generateNewGoal()&lt;br&gt;refreshInactiveGoals()&lt;br&gt;checkGoalProgress(goal)&lt;br&gt;markGoalAsComplete()" style="rounded=0;whiteSpace=wrap;html=1;align=left;spacingLeft=2;" parent="FTgBYZZlQ3uHb3LYkkLP-113" vertex="1">
          <mxGeometry y="101.5" width="150.5" height="70" as="geometry" />
        </mxCell>
        <mxCell id="FTgBYZZlQ3uHb3LYkkLP-114" value="" style="group" parent="1" vertex="1" connectable="0">
          <mxGeometry x="95" y="152" width="258" height="318" as="geometry" />
        </mxCell>
        <mxCell id="FTgBYZZlQ3uHb3LYkkLP-56" value="User" style="rounded=0;whiteSpace=wrap;html=1;" parent="FTgBYZZlQ3uHb3LYkkLP-114" vertex="1">
          <mxGeometry width="258" height="30" as="geometry" />
        </mxCell>
        <mxCell id="FTgBYZZlQ3uHb3LYkkLP-94" value="firstName&lt;br&gt;lastName&lt;br&gt;email&lt;br&gt;username&lt;br&gt;password&lt;br&gt;referralCode&lt;br&gt;myGoals&lt;br&gt;myQuizzes&lt;br&gt;myTracker&lt;br&gt;myReccomendations" style="rounded=0;whiteSpace=wrap;html=1;align=left;spacingLeft=2;" parent="FTgBYZZlQ3uHb3LYkkLP-114" vertex="1">
          <mxGeometry y="30" width="258" height="158" as="geometry" />
        </mxCell>
        <mxCell id="FTgBYZZlQ3uHb3LYkkLP-95" value="generateReferralCode()&lt;br&gt;addGoal(id)&lt;br&gt;removeGoal(id)&lt;br&gt;takeDayQuiz()&lt;br&gt;takeMonthQuiz()&lt;br&gt;addTrackerItem(trackerSelection, trackerItem)&lt;br&gt;changeTrackerType(type)&lt;br&gt;getRecommendations()" style="rounded=0;whiteSpace=wrap;html=1;align=left;spacingLeft=2;" parent="FTgBYZZlQ3uHb3LYkkLP-114" vertex="1">
          <mxGeometry y="188" width="258" height="130" as="geometry" />
        </mxCell>
        <mxCell id="FTgBYZZlQ3uHb3LYkkLP-115" value="" style="group" parent="1" vertex="1" connectable="0">
          <mxGeometry x="452" y="152" width="165.5" height="109.5" as="geometry" />
        </mxCell>
        <mxCell id="FTgBYZZlQ3uHb3LYkkLP-66" value="Recommendation" style="rounded=0;whiteSpace=wrap;html=1;" parent="FTgBYZZlQ3uHb3LYkkLP-115" vertex="1">
          <mxGeometry width="165.5" height="30" as="geometry" />
        </mxCell>
        <mxCell id="FTgBYZZlQ3uHb3LYkkLP-92" value="recommendations&lt;br&gt;suggestedArticles" style="rounded=0;whiteSpace=wrap;html=1;align=left;spacingLeft=2;" parent="FTgBYZZlQ3uHb3LYkkLP-115" vertex="1">
          <mxGeometry y="29.5" width="165.5" height="40" as="geometry" />
        </mxCell>
        <mxCell id="FTgBYZZlQ3uHb3LYkkLP-93" value="generateReccomendations()&lt;br&gt;pickSuggestedArticle()" style="rounded=0;whiteSpace=wrap;html=1;align=left;spacingLeft=2;" parent="FTgBYZZlQ3uHb3LYkkLP-115" vertex="1">
          <mxGeometry y="69.5" width="165.5" height="40" as="geometry" />
        </mxCell>
        <mxCell id="FTgBYZZlQ3uHb3LYkkLP-116" value="" style="group" parent="1" vertex="1" connectable="0">
          <mxGeometry x="113" y="536" width="222" height="229" as="geometry" />
        </mxCell>
        <mxCell id="FTgBYZZlQ3uHb3LYkkLP-59" value="Tracker" style="rounded=0;whiteSpace=wrap;html=1;" parent="FTgBYZZlQ3uHb3LYkkLP-116" vertex="1">
          <mxGeometry width="222" height="30" as="geometry" />
        </mxCell>
        <mxCell id="FTgBYZZlQ3uHb3LYkkLP-89" value="exerciseItems&lt;br&gt;foodItems&lt;br&gt;currentTracker" style="rounded=0;whiteSpace=wrap;html=1;align=left;spacingLeft=2;" parent="FTgBYZZlQ3uHb3LYkkLP-116" vertex="1">
          <mxGeometry y="30" width="222" height="60" as="geometry" />
        </mxCell>
        <mxCell id="FTgBYZZlQ3uHb3LYkkLP-91" value="addFood(food)&lt;br&gt;addExercise(exercise)&lt;br&gt;updateFood(food, newFood)&lt;br&gt;updateExercise(exercise, newExercise)&lt;br&gt;removeFood(food)&lt;br&gt;removeExercise(exercise)&lt;br&gt;setCurrentTracker()&lt;br&gt;synchroniseExercises()" style="rounded=0;whiteSpace=wrap;html=1;align=left;spacingLeft=2;" parent="FTgBYZZlQ3uHb3LYkkLP-116" vertex="1">
          <mxGeometry y="90" width="222" height="139" as="geometry" />
        </mxCell>
        <mxCell id="FTgBYZZlQ3uHb3LYkkLP-117" value="" style="group" parent="1" vertex="1" connectable="0">
          <mxGeometry x="237" y="889" width="137.5" height="140" as="geometry" />
        </mxCell>
        <mxCell id="FTgBYZZlQ3uHb3LYkkLP-63" value="Food" style="rounded=0;whiteSpace=wrap;html=1;" parent="FTgBYZZlQ3uHb3LYkkLP-117" vertex="1">
          <mxGeometry width="137.5" height="30" as="geometry" />
        </mxCell>
        <mxCell id="FTgBYZZlQ3uHb3LYkkLP-87" value="foodType&lt;br&gt;foodName&lt;br&gt;servingSize&lt;br&gt;foodTime" style="rounded=0;whiteSpace=wrap;html=1;align=left;spacingLeft=2;" parent="FTgBYZZlQ3uHb3LYkkLP-117" vertex="1">
          <mxGeometry y="30" width="137.5" height="71" as="geometry" />
        </mxCell>
        <mxCell id="FTgBYZZlQ3uHb3LYkkLP-88" value="estimateCalorieIntake()" style="rounded=0;whiteSpace=wrap;html=1;align=left;spacingLeft=2;" parent="FTgBYZZlQ3uHb3LYkkLP-117" vertex="1">
          <mxGeometry y="101" width="137.5" height="39" as="geometry" />
        </mxCell>
        <mxCell id="FTgBYZZlQ3uHb3LYkkLP-120" value="" style="group" parent="1" vertex="1" connectable="0">
          <mxGeometry x="63.5" y="889" width="142.5" height="129" as="geometry" />
        </mxCell>
        <mxCell id="FTgBYZZlQ3uHb3LYkkLP-86" value="estimateCalorieUsage()" style="rounded=0;whiteSpace=wrap;html=1;align=left;spacingLeft=2;" parent="FTgBYZZlQ3uHb3LYkkLP-120" vertex="1">
          <mxGeometry y="90" width="142.5" height="39" as="geometry" />
        </mxCell>
        <mxCell id="FTgBYZZlQ3uHb3LYkkLP-118" value="Exercise" style="rounded=0;whiteSpace=wrap;html=1;" parent="FTgBYZZlQ3uHb3LYkkLP-120" vertex="1">
          <mxGeometry width="142.5" height="30" as="geometry" />
        </mxCell>
        <mxCell id="FTgBYZZlQ3uHb3LYkkLP-119" value="exerciseType&lt;br&gt;exerciseStart&lt;br&gt;exerciseEnd" style="rounded=0;whiteSpace=wrap;html=1;align=left;spacingLeft=2;" parent="FTgBYZZlQ3uHb3LYkkLP-120" vertex="1">
          <mxGeometry y="30" width="142.5" height="60" as="geometry" />
        </mxCell>
      </root>
    </mxGraphModel>
  </diagram>
</mxfile>
